<?xml version="1.0" encoding="utf-8"?>
<!-- Generator: Adobe Illustrator 17.1.0, SVG Export Plug-In . SVG Version: 6.00 Build 0)  -->
<!DOCTYPE svg PUBLIC "-//W3C//DTD SVG 1.1//EN" "http://www.w3.org/Graphics/SVG/1.1/DTD/svg11.dtd">
<svg version="1.1" xmlns="http://www.w3.org/2000/svg" xmlns:xlink="http://www.w3.org/1999/xlink" x="0px" y="0px"
	 viewBox="0 0 469.477 469.477" enable-background="new 0 0 469.477 469.477" xml:space="preserve">
<g id="Layer_1">
</g>
<g id="Layer_2">
</g>
<g id="Layer_3">
</g>
<g id="Layer_4">
	<g>
		<path fill="#FFFFFF" d="M286.327,168.174c0.268-30.56-23.008-55.213-51.67-55.234c-28.797-0.021-52.202,24.401-52.206,54.475
			c-0.004,30.322,23.162,54.831,51.827,54.831C261.228,222.767,286.051,199.65,286.327,168.174z"/>
		<path fill="#FFFFFF" d="M271.147,249.343c-19.73-15.411-41.097-16.995-63.256-6.727c-10.939,5.069-19.162,13.458-23.357,25.596
			c-1.157,3.347-2.259,6.754-1.425,10.472c1.853,8.258,6.589,14.393,12.907,19.247c11.373,8.738,24.398,11.891,38.228,11.921
			c1.775,0,3.557,0.107,5.324-0.017c11.177-0.785,21.701-3.829,31.154-10.355c5.995-4.14,10.901-9.355,13.68-16.462
			c1.156-2.957,2.005-5.959,1.363-9.308C283.826,263.602,278.868,255.374,271.147,249.343z M262.453,290.116
			c-8.191,6.953-17.862,9.345-28.254,9.476c-10.16-0.187-19.68-2.693-27.893-9.48c-8.678-7.171-10.974-18.402-5.515-27.374
			c3.126-5.137,7.533-8.831,12.805-11.199c15.672-7.039,31.089-6.679,45.934,2.533c5.233,3.247,9.309,7.866,10.83,14.249
			C272.526,277.411,269.029,284.534,262.453,290.116z"/>
		<path fill="#FFFFFF" d="M234.35,7.719C109.264,7.719,7.861,109.122,7.861,234.208c0,125.086,101.402,226.489,226.489,226.489
			s226.489-101.402,226.489-226.489C460.839,109.122,359.436,7.719,234.35,7.719z M273.924,326.084
			c-24.705,16.834-58.816,15.767-82.536-2.597c-11.955-9.255-19.684-21.444-21.807-37.144c-3.267-24.171,6.139-43.138,26.854-54.371
			c2.278-1.235,4.603-2.373,7.131-3.672c-21.743-13.766-33.828-33.573-34.238-60.352c-0.298-19.444,6.577-36.134,19.814-49.647
			c26.953-27.516,69.5-25.333,93.998,3.769c8.875,10.543,14.239,22.841,15.884,36.877c1.651,14.09-0.538,27.471-6.723,40.103
			c-6.147,12.553-15.243,22.097-26.648,28.848c5.406,3.491,10.948,6.506,15.886,10.378c9.462,7.421,16.174,17.086,17.648,29.711
			C302.071,292.698,293.999,312.405,273.924,326.084z"/>
	</g>
</g>
<g id="Layer_5">
</g>
<g id="Layer_6">
</g>
<g id="Layer_7">
</g>
<g id="Layer_8">
</g>
<g id="Layer_9">
</g>
<g id="Layer_10">
</g>
<g id="Layer_11">
</g>
</svg>
