<?xml version="1.0" encoding="utf-8"?>
<!-- Generator: Adobe Illustrator 17.1.0, SVG Export Plug-In . SVG Version: 6.00 Build 0)  -->
<!DOCTYPE svg PUBLIC "-//W3C//DTD SVG 1.1//EN" "http://www.w3.org/Graphics/SVG/1.1/DTD/svg11.dtd">
<svg version="1.1" xmlns="http://www.w3.org/2000/svg" xmlns:xlink="http://www.w3.org/1999/xlink" x="0px" y="0px"
	 viewBox="0 0 1190.55 841.89" enable-background="new 0 0 1190.55 841.89" xml:space="preserve">
<g id="Layer_1">
</g>
<g id="Layer_2">
</g>
<g id="Layer_3">
</g>
<g id="Layer_4">
</g>
<g id="Layer_5">
</g>
<g id="Layer_6">
</g>
<g id="Layer_7">
</g>
<g id="Layer_8">
</g>
<g id="Layer_9">
</g>
<g id="Layer_10">
	<g>
		<path fill="#FFFFFF" d="M664.971,398.741h-141.19c-2.089,0-3.782,1.693-3.782,3.782v126.063c0,2.089,1.693,3.782,3.782,3.782
			h141.19c2.089,0,3.782-1.693,3.782-3.782V402.523C668.753,400.435,667.06,398.741,664.971,398.741z M640.673,472.955l-9.555,9.554
			l-39.039,39.039l-39.039-39.039l-9.555-9.554c-10.78-10.781-10.78-28.259,0-39.039c10.781-10.78,28.259-10.78,39.04,0l9.554,9.554
			l9.555-9.554c10.78-10.78,28.258-10.78,39.039,0C651.453,444.696,651.453,462.175,640.673,472.955z"/>
		<path fill="#FFFFFF" d="M595.275,218.217c-125.086,0-226.489,101.402-226.489,226.489c0,125.086,101.402,226.489,226.489,226.489
			s226.489-101.403,226.489-226.489C821.764,319.619,720.362,218.217,595.275,218.217z M639.77,319.69
			c0-5.897,4.78-10.678,10.678-10.678h0.216c5.897,0,10.678,4.781,10.678,10.678v25.383c0,5.897-4.781,10.678-10.678,10.678h-0.216
			c-5.897,0-10.678-4.781-10.678-10.678V319.69z M601.756,319.69c0-5.897,4.781-10.678,10.678-10.678h0.215
			c5.897,0,10.678,4.781,10.678,10.678v25.383c0,5.897-4.781,10.678-10.678,10.678h-0.215c-5.897,0-10.678-4.781-10.678-10.678
			V319.69z M564.027,319.69c0-5.897,4.781-10.678,10.678-10.678h0.216c5.897,0,10.678,4.781,10.678,10.678v25.383
			c0,5.897-4.781,10.678-10.678,10.678h-0.216c-5.897,0-10.678-4.781-10.678-10.678V319.69z M526.412,319.69
			c0-5.897,4.781-10.678,10.678-10.678h0.216c5.897,0,10.678,4.781,10.678,10.678v25.383c0,5.897-4.781,10.678-10.678,10.678h-0.216
			c-5.897,0-10.678-4.781-10.678-10.678V319.69z M701.335,541.396c0,3.204-2.414,5.801-5.393,5.801H494.608
			c-2.979,0-5.393-2.597-5.393-5.801V348.015c0-3.204,2.415-5.801,5.393-5.801h25.392c0,16.497,7.731,29.87,17.267,29.87
			s17.267-13.373,17.267-29.87h3.012c0,16.497,7.731,29.87,17.267,29.87s17.267-13.373,17.267-29.87h3.195
			c0,16.497,7.731,29.87,17.267,29.87c9.537,0,17.267-13.373,17.267-29.87h3.48c0,16.497,7.731,29.87,17.267,29.87
			s17.267-13.373,17.267-29.87h28.119c2.979,0,5.393,2.597,5.393,5.801V541.396z"/>
	</g>
</g>
<g id="Layer_11">
</g>
</svg>
