<?xml version="1.0" encoding="utf-8"?>
<!-- Generator: Adobe Illustrator 17.1.0, SVG Export Plug-In . SVG Version: 6.00 Build 0)  -->
<!DOCTYPE svg PUBLIC "-//W3C//DTD SVG 1.1//EN" "http://www.w3.org/Graphics/SVG/1.1/DTD/svg11.dtd">
<svg version="1.1" xmlns="http://www.w3.org/2000/svg" xmlns:xlink="http://www.w3.org/1999/xlink" x="0px" y="0px"
	 viewBox="0 0 1190.55 841.89" enable-background="new 0 0 1190.55 841.89" xml:space="preserve">
<g id="Layer_1">
</g>
<g id="Layer_2">
</g>
<g id="Layer_3">
</g>
<g id="Layer_4">
</g>
<g id="Layer_5">
</g>
<g id="Layer_6">
</g>
<g id="Layer_7">
</g>
<g id="Layer_8">
</g>
<g id="Layer_9">
	<path fill="#FFFFFF" d="M595.275,221.076c-125.086,0-226.488,101.402-226.488,226.489s101.402,226.489,226.488,226.489
		c125.086,0,226.489-101.403,226.489-226.489S720.362,221.076,595.275,221.076z M516.733,546.503h-31.033
		c-12.387,0-22.428-10.041-22.428-22.427v-55.429c0-12.386,10.041-22.427,22.428-22.427h31.033V546.503z M595.275,344.089
		c-49.079-0.1-91.822,30.731-94.638,84.828h-19.5c2.518-66.142,48.598-117.586,114.139-117.586
		c65.541,0,111.621,51.444,114.139,117.586h-19.5C687.097,374.82,644.353,343.989,595.275,344.089z M727.277,524.076
		c0,12.386-10.041,22.427-22.428,22.427h-31.033V446.219h31.033c12.387,0,22.428,10.041,22.428,22.427V524.076z"/>
</g>
<g id="Layer_10">
</g>
<g id="Layer_11">
</g>
</svg>
