<?xml version="1.0" encoding="utf-8"?>
<!-- Generator: Adobe Illustrator 17.1.0, SVG Export Plug-In . SVG Version: 6.00 Build 0)  -->
<!DOCTYPE svg PUBLIC "-//W3C//DTD SVG 1.1//EN" "http://www.w3.org/Graphics/SVG/1.1/DTD/svg11.dtd">
<svg version="1.1" xmlns="http://www.w3.org/2000/svg" xmlns:xlink="http://www.w3.org/1999/xlink" x="0px" y="0px"
	 viewBox="0 0 1190.55 841.89" enable-background="new 0 0 1190.55 841.89" xml:space="preserve">
<g id="Layer_1">
</g>
<g id="Layer_2">
</g>
<g id="Layer_3">
</g>
<g id="Layer_4">
</g>
<g id="Layer_5">
</g>
<g id="Layer_6">
</g>
<g id="Layer_7">
	<path fill="#FFFFFF" d="M595.275,215.576c-125.086,0-226.489,101.402-226.489,226.489c0,125.086,101.402,226.489,226.489,226.489
		c125.086,0,226.488-101.402,226.488-226.489C821.763,316.978,720.361,215.576,595.275,215.576z M716.834,459.113
		c-6.99,21.512-30.095,33.285-51.607,26.295c-18.884-6.135-58.512-52.19-67.915-63.355c7.784,12.512,39.227,64.285,39.227,84.105
		c0,22.619-18.336,40.955-40.956,40.955s-40.956-18.336-40.956-40.955c0-21.368,36.544-79.87,40.587-86.277
		c-0.039-0.016-0.076-0.031-0.119-0.048c-3.176,3.833-49.011,58.829-69.771,65.574c-21.512,6.99-44.617-4.783-51.607-26.295
		c-6.99-21.512,4.783-44.617,26.295-51.607c19.442-6.317,81.548,8.675,93.321,11.618c-12.668-5.131-69.889-28.948-81.696-45.198
		c-13.295-18.299-9.239-43.911,9.061-57.207c18.299-13.295,43.912-9.239,57.207,9.061c11.94,16.435,16.887,79.434,17.771,92.105
		c0.708-10.458,5.603-76.103,17.828-92.929c13.295-18.299,38.907-22.356,57.207-9.061c18.299,13.295,22.356,38.907,9.061,57.207
		c-12.907,17.765-80.09,44.573-84.004,46.124c0.006,0.097,0.012,0.178,0.017,0.26c6.516-1.659,74.284-18.631,94.754-11.98
		C712.051,414.495,723.823,437.601,716.834,459.113z"/>
</g>
<g id="Layer_8">
</g>
<g id="Layer_9">
</g>
<g id="Layer_10">
</g>
<g id="Layer_11">
</g>
</svg>
