<?xml version="1.0" encoding="utf-8"?>
<!-- Generator: Adobe Illustrator 17.1.0, SVG Export Plug-In . SVG Version: 6.00 Build 0)  -->
<!DOCTYPE svg PUBLIC "-//W3C//DTD SVG 1.1//EN" "http://www.w3.org/Graphics/SVG/1.1/DTD/svg11.dtd">
<svg version="1.1" xmlns="http://www.w3.org/2000/svg" xmlns:xlink="http://www.w3.org/1999/xlink" x="0px" y="0px"
	 viewBox="0 0 1190.55 841.89" enable-background="new 0 0 1190.55 841.89" xml:space="preserve">
<g id="Layer_1">
</g>
<g id="Layer_2">
</g>
<g id="Layer_3">
</g>
<g id="Layer_4">
</g>
<g id="Layer_5">
</g>
<g id="Layer_6">
	<g>
		<path fill="#FFFFFF" d="M597.192,337.84c5.633-0.658,10.007-5.44,10.007-11.25c0-6.26-5.074-11.334-11.334-11.334
			s-11.334,5.074-11.334,11.334c0,5.786,4.338,10.55,9.937,11.239c0.364-0.004,0.725-0.021,1.09-0.021
			C596.104,337.808,596.647,337.831,597.192,337.84z"/>
		<path fill="#FFFFFF" d="M595.275,215.576c-125.086,0-226.489,101.402-226.489,226.489c0,125.086,101.403,226.489,226.489,226.489
			s226.489-101.402,226.489-226.489C821.764,316.978,720.361,215.576,595.275,215.576z M581.735,338.721
			c-1.867-2.739-2.961-6.047-2.961-9.612c0-9.439,7.652-17.091,17.091-17.091s17.091,7.652,17.091,17.091
			c0,3.599-1.118,6.933-3.017,9.688c82.119,11.011,146.266,112.483,146.266,132.985c0,21.684-70.26,57.845-159.149,57.845
			s-162.146-36.161-162.146-57.845C434.911,451.233,499.348,349.345,581.735,338.721z M595.275,549.086
			c-96.084,0-173.976-34.619-173.976-77.323c0-6.941,2.07-13.667,5.929-20.067c-1.572,3.896-2.408,7.896-2.408,11.975
			c0,40.221,79.957,72.827,170.455,72.827c90.498,0,170.455-32.606,170.455-72.827c0-4.079-0.836-8.078-2.408-11.975
			c3.859,6.4,5.929,13.125,5.929,20.067C769.251,514.467,691.359,549.086,595.275,549.086z"/>
	</g>
</g>
<g id="Layer_7">
</g>
<g id="Layer_8">
</g>
<g id="Layer_9">
</g>
<g id="Layer_10">
</g>
<g id="Layer_11">
</g>
</svg>
