<?xml version="1.0" encoding="utf-8"?>
<!-- Generator: Adobe Illustrator 17.1.0, SVG Export Plug-In . SVG Version: 6.00 Build 0)  -->
<!DOCTYPE svg PUBLIC "-//W3C//DTD SVG 1.1//EN" "http://www.w3.org/Graphics/SVG/1.1/DTD/svg11.dtd">
<svg version="1.1" xmlns="http://www.w3.org/2000/svg" xmlns:xlink="http://www.w3.org/1999/xlink" x="0px" y="0px"
	 viewBox="0 0 1190.55 841.89" enable-background="new 0 0 1190.55 841.89" xml:space="preserve">
<g id="Layer_1">
</g>
<g id="Layer_2">
	<path fill="#FFFFFF" d="M595.275,203.576c-125.086,0-226.489,101.402-226.489,226.489c0,125.086,101.403,226.489,226.489,226.489
		s226.489-101.402,226.489-226.489C821.764,304.978,720.361,203.576,595.275,203.576z M662.737,334.312
		c12.019,0,21.762,9.743,21.762,21.762c0,12.019-9.743,21.762-21.762,21.762s-21.762-9.743-21.762-21.762
		C640.975,344.055,650.718,334.312,662.737,334.312z M469.781,430.064c0-12.019,9.743-21.762,21.762-21.762
		s21.762,9.743,21.762,21.762c0,12.019-9.743,21.762-21.762,21.762S469.781,442.083,469.781,430.064z M524.186,524.432
		c-12.019,0-21.762-9.743-21.762-21.762c0-12.019,9.743-21.762,21.762-21.762c12.019,0,21.762,9.743,21.762,21.762
		C545.948,514.689,536.205,524.432,524.186,524.432z M524.186,377.836c-12.019,0-21.762-9.743-21.762-21.762
		c0-12.019,9.743-21.762,21.762-21.762s21.762,9.743,21.762,21.762C545.948,368.093,536.205,377.836,524.186,377.836z
		 M591.648,546.194c-12.019,0-21.762-9.743-21.762-21.762s9.743-21.762,21.762-21.762s21.762,9.743,21.762,21.762
		S603.667,546.194,591.648,546.194z M591.648,356.074c-12.019,0-21.762-9.743-21.762-21.762s9.743-21.762,21.762-21.762
		s21.762,9.743,21.762,21.762S603.667,356.074,591.648,356.074z M662.737,524.432c-12.019,0-21.762-9.743-21.762-21.762
		c0-12.019,9.743-21.762,21.762-21.762s21.762,9.743,21.762,21.762C684.499,514.689,674.755,524.432,662.737,524.432z
		 M699.007,451.826c-12.019,0-21.762-9.743-21.762-21.762c0-12.019,9.743-21.762,21.762-21.762s21.762,9.743,21.762,21.762
		C720.769,442.083,711.026,451.826,699.007,451.826z"/>
</g>
<g id="Layer_3">
</g>
<g id="Layer_4">
</g>
<g id="Layer_5">
</g>
<g id="Layer_6">
</g>
<g id="Layer_7">
</g>
<g id="Layer_8">
</g>
<g id="Layer_9">
</g>
<g id="Layer_10">
</g>
<g id="Layer_11">
</g>
</svg>
