<?xml version="1.0" encoding="utf-8"?>
<!-- Generator: Adobe Illustrator 17.1.0, SVG Export Plug-In . SVG Version: 6.00 Build 0)  -->
<!DOCTYPE svg PUBLIC "-//W3C//DTD SVG 1.1//EN" "http://www.w3.org/Graphics/SVG/1.1/DTD/svg11.dtd">
<svg version="1.1" xmlns="http://www.w3.org/2000/svg" xmlns:xlink="http://www.w3.org/1999/xlink" x="0px" y="0px"
	 viewBox="0 0 1190.55 841.89" enable-background="new 0 0 1190.55 841.89" xml:space="preserve">
<g id="Layer_1">
</g>
<g id="Layer_2">
</g>
<g id="Layer_3">
	<g>
		<path fill="#FFFFFF" d="M608.299,221.576c-125.086,0-226.489,101.402-226.489,226.489s101.402,226.489,226.489,226.489
			c125.086,0,226.489-101.403,226.489-226.489S733.385,221.576,608.299,221.576z M691.493,547.514H525.105
			c-10.688,0-19.352-8.664-19.352-19.352l14.343-135.551c0-10.688,8.664-19.352,19.352-19.352h25.841
			c0.405-20.435,9.268-64.406,28.534-64.406h28.952c19.266,0,28.129,43.972,28.534,64.406h25.841
			c10.688,0,19.352,8.664,19.352,19.352l14.343,135.551C710.845,538.85,702.181,547.514,691.493,547.514z"/>
		<path fill="#FFFFFF" d="M620.671,320.118h-24.744c-14.822,0-19.667,33.565-20.622,53.14h65.989
			C640.338,353.684,635.493,320.118,620.671,320.118z"/>
	</g>
</g>
<g id="Layer_4">
</g>
<g id="Layer_5">
</g>
<g id="Layer_6">
</g>
<g id="Layer_7">
</g>
<g id="Layer_8">
</g>
<g id="Layer_9">
</g>
<g id="Layer_10">
</g>
<g id="Layer_11">
</g>
</svg>
