<?xml version="1.0" encoding="utf-8"?>
<!-- Generator: Adobe Illustrator 17.1.0, SVG Export Plug-In . SVG Version: 6.00 Build 0)  -->
<!DOCTYPE svg PUBLIC "-//W3C//DTD SVG 1.1//EN" "http://www.w3.org/Graphics/SVG/1.1/DTD/svg11.dtd">
<svg version="1.1" xmlns="http://www.w3.org/2000/svg" xmlns:xlink="http://www.w3.org/1999/xlink" x="0px" y="0px"
	 viewBox="0 0 469.477 467.977" enable-background="new 0 0 469.477 467.977" xml:space="preserve">
<g id="Layer_1">
</g>
<g id="Layer_2">
	<path fill="#FFFFFF" d="M235.469,7.719C110.383,7.719,8.981,109.121,8.981,234.207c0,125.086,101.403,226.489,226.489,226.489
		s226.489-101.402,226.489-226.489C461.958,109.121,360.556,7.719,235.469,7.719z M302.931,138.455
		c12.019,0,21.762,9.743,21.762,21.762c0,12.019-9.743,21.762-21.762,21.762s-21.762-9.743-21.762-21.762
		C281.169,148.198,290.912,138.455,302.931,138.455z M109.975,234.207c0-12.019,9.743-21.762,21.762-21.762
		s21.762,9.743,21.762,21.762c0,12.019-9.743,21.762-21.762,21.762S109.975,246.226,109.975,234.207z M164.38,328.575
		c-12.019,0-21.762-9.743-21.762-21.762s9.743-21.762,21.762-21.762c12.019,0,21.762,9.743,21.762,21.762
		S176.399,328.575,164.38,328.575z M164.38,181.979c-12.019,0-21.762-9.743-21.762-21.762c0-12.019,9.743-21.762,21.762-21.762
		s21.762,9.743,21.762,21.762C186.142,172.235,176.399,181.979,164.38,181.979z M231.842,350.337
		c-12.019,0-21.762-9.743-21.762-21.762s9.743-21.762,21.762-21.762s21.762,9.743,21.762,21.762S243.861,350.337,231.842,350.337z
		 M231.842,160.217c-12.019,0-21.762-9.743-21.762-21.762s9.743-21.762,21.762-21.762s21.762,9.743,21.762,21.762
		S243.861,160.217,231.842,160.217z M302.931,328.575c-12.019,0-21.762-9.743-21.762-21.762s9.743-21.762,21.762-21.762
		s21.762,9.743,21.762,21.762S314.95,328.575,302.931,328.575z M339.201,255.969c-12.019,0-21.762-9.743-21.762-21.762
		c0-12.019,9.743-21.762,21.762-21.762s21.762,9.743,21.762,21.762C360.963,246.226,351.22,255.969,339.201,255.969z"/>
</g>
<g id="Layer_3">
</g>
<g id="Layer_4">
</g>
<g id="Layer_5">
</g>
<g id="Layer_6">
</g>
<g id="Layer_7">
</g>
<g id="Layer_8">
</g>
<g id="Layer_9">
</g>
<g id="Layer_10">
</g>
<g id="Layer_11">
</g>
</svg>
