<?xml version="1.0" encoding="utf-8"?>
<!-- Generator: Adobe Illustrator 17.1.0, SVG Export Plug-In . SVG Version: 6.00 Build 0)  -->
<!DOCTYPE svg PUBLIC "-//W3C//DTD SVG 1.1//EN" "http://www.w3.org/Graphics/SVG/1.1/DTD/svg11.dtd">
<svg version="1.1" xmlns="http://www.w3.org/2000/svg" xmlns:xlink="http://www.w3.org/1999/xlink" x="0px" y="0px"
	 viewBox="0 0 595.276 841.89" enable-background="new 0 0 595.276 841.89" xml:space="preserve">
<g id="background">
</g>
<g id="cake">
</g>
<g id="Layer_3">
</g>
<g id="Layer_4">
	<circle cx="299.804" cy="369.695" r="226.489"/>
	<g>
		<polygon fill="#FFFFFF" points="369.028,501.205 229.99,501.205 195.082,394.116 404.527,394.116 		"/>
		<path fill="#FFFFFF" d="M299.864,255.519c-11.237,12.787-28.123,23.659-48.426,29.86c-0.079,0.024-0.158,0.045-0.237,0.069
			c-3.028-1.359-6.383-2.121-9.917-2.121c-10.673,0-19.729,6.896-22.974,16.473c-0.318,0.327-0.634,0.657-0.941,0.994
			c-12.001,0.29-21.643,10.102-21.643,22.173c0,0.917,0.062,1.819,0.17,2.707c-0.189,0.834-0.348,1.679-0.467,2.537
			c-13.462,3.642-23.369,15.936-23.369,30.551c0,17.482,14.172,31.653,31.653,31.653c1.099,0,2.184-0.056,3.254-0.166v0.166h93.268
			V255.519H299.864z"/>
		<path fill="#FFFFFF" d="M299.745,255.519c11.237,12.787,28.123,23.659,48.425,29.86c0.079,0.024,0.158,0.045,0.237,0.069
			c3.029-1.359,6.383-2.121,9.917-2.121c10.673,0,19.729,6.896,22.974,16.473c0.318,0.327,0.634,0.657,0.941,0.994
			c12.001,0.29,21.643,10.102,21.643,22.173c0,0.917-0.062,1.819-0.17,2.707c0.189,0.834,0.348,1.679,0.467,2.537
			c13.462,3.642,23.369,15.936,23.369,30.551c0,17.482-14.172,31.653-31.653,31.653c-1.099,0-2.184-0.056-3.254-0.166v0.166h-92.996
			V255.519H299.745z"/>
	</g>
</g>
<g id="Layer_5">
</g>
<g id="Layer_6">
</g>
<g id="Layer_7">
</g>
</svg>
