<?xml version="1.0" encoding="utf-8"?>
<!-- Generator: Adobe Illustrator 17.1.0, SVG Export Plug-In . SVG Version: 6.00 Build 0)  -->
<!DOCTYPE svg PUBLIC "-//W3C//DTD SVG 1.1//EN" "http://www.w3.org/Graphics/SVG/1.1/DTD/svg11.dtd">
<svg version="1.1" xmlns="http://www.w3.org/2000/svg" xmlns:xlink="http://www.w3.org/1999/xlink" x="0px" y="0px"
	 viewBox="0 0 595.276 841.89" enable-background="new 0 0 595.276 841.89" xml:space="preserve">
<g id="background">
</g>
<g id="cake">
	<path fill="#FFFFFF" d="M493.49,378.212c-1.555-3.554-15.792-35.053-36.432-46.656l-0.326-0.184l-0.338-0.164
		c-2.429-1.18-5.029-2.308-7.767-3.384c11.033-54.321,10.305-82.832,10.305-82.832l-0.18-1.089c-0.68-4.105-1.92-7.682-3.695-10.739
		c1.365-1.311,2.584-2.797,3.627-4.466c11.986-19.172-4.467-56.949-9.796-68.07l-6.98-14.569l-12.351,10.414
		c-15.748,13.279-25.721,40.566-21.777,59.585c0.756,3.642,1.992,6.927,3.655,9.82c-3.042,2.464-5.81,5.893-8.014,10.614
		l-0.349,0.747l-0.248,0.786c-2.064,6.555-4.105,17.298-6.109,32.118c1.11-18.602,1.365-30.795,0.779-36.874
		c0,0-0.084-0.919-0.298-1.765c-0.745-3.376-2.579-7.706-4.663-10.669c0.432-0.53,0.852-1.074,1.244-1.649
		c13.197-19.325-2.072-60.486-7.067-72.641l-6.569-15.986l-13.125,11.245c-15.041,12.886-27.979,43.416-22.779,64.989
		c0.928,3.846,2.437,7.292,4.427,10.282c-2.848,2.684-5.351,6.31-7.196,11.182l-0.314,0.94c-2.284,7.868-4.088,47.406-5.291,83.447
		c-3.899-0.013-7.871,0.004-11.906,0.051c1.095-43.565,0.915-70.361-0.538-79.692l-0.383-2.042
		c-1.306-4.299-3.188-7.562-5.599-10.482c0.185-0.26,0.372-0.516,0.548-0.786c12.705-19.513-3.588-60.101-8.885-72.075l-6.92-15.647
		l-12.803,11.349c-14.995,13.292-27.195,44.184-21.078,65.631c1.169,4.099,2.998,7.703,5.368,10.741
		c-2.652,2.828-4.914,6.559-6.464,11.468l-0.164,0.565c-0.604,2.28-2.163,8.175-0.687,83.423c-2.52,0.176-5.049,0.361-7.59,0.556
		c-0.996-27.909-2.832-66.035-5.726-79.327c-1.048-4.817-3.184-8.877-6.198-12.063c11.679-20.183-5.269-60.608-10.793-72.613
		l-7.298-15.86l-12.663,12.02c-14.818,14.065-26.216,45.979-19.29,67.637c1.314,4.109,3.281,7.694,5.781,10.682
		c-2.49,3.002-4.528,6.892-5.768,11.929c-0.421,1.709-0.458,3.279-0.485,5.908c0,0-0.328,13.985,0.91,31.223
		c0.85,12.296,2.23,28.428,3.948,46.239c-0.931,0.116-1.862,0.231-2.787,0.349c-4.483-36.622-8.611-61.855-11.381-76.981
		c0,0,0.066-0.553-0.97-3.038c-0.673-1.64-2.09-5.39-6.745-9.616c11.214-20.271-5.222-60.24-10.604-72.157l-7.19-15.919
		l-12.748,11.942c-15.033,14.083-26.633,46.075-19.655,67.81c1.569,4.889,4.062,9.035,7.291,12.303
		c-2.641,3.338-4.996,7.867-5.939,13.58c-0.196,1.181-0.5,4.25-0.375,7.25c0,0,8.231,54.998,11.464,74.424
		c-34.207,10.05-41.144,40.734-41.422,42.055c0,0-0.253,0.736-0.308,1.942c-0.025,0.548,0.105,1.226,0.168,1.989
		c0.098,2.214,17.706,173.868,17.706,173.868H477.49l17.318-170.061L493.49,378.212z"/>
	<g>
		<g>
			<path d="M187.958,339.612c-3.217,3.359-28.684,7.929-31.622,4.526c0,0-14.087-87.403-13.243-92.511
				c0.844-5.108,2.973-11.648,14.556-13.307c11.583-1.658,14.928,4.202,17.066,8.78
				C176.854,251.678,187.958,339.612,187.958,339.612z"/>
			<path d="M157.3,165.184c-17.939,16.806-28.981,67.26,0.479,66.782C187.253,231.488,157.3,165.184,157.3,165.184z"/>
			<path d="M156.755,185.284c-12.551,11.353-20.289,45.449,0.309,45.115C177.665,230.064,156.755,185.284,156.755,185.284z"/>
			<path d="M156.409,201.396c-8.719,7.102-14.125,28.395,0.163,28.163C170.864,229.327,156.409,201.396,156.409,201.396z"/>
			<path d="M154.466,221.382c-1.644,3.58-0.453,8.7,0.699,13.66c0.359,1.553,0.698,3.022,0.947,4.388l3.73-0.609
				c-0.257-1.436-0.597-2.935-0.965-4.514c-1.008-4.327-2.147-9.21-0.897-12.004C158.189,220.843,156.157,219.097,154.466,221.382z"
				/>
			<path d="M176.346,254.988c-11.234,1.967-24.146,0.247-33.251-1.626c0.119,2.077,0.519,5.693,1.112,10.328
				c8.154,1.432,19.484,1.97,33.525,0.104C177.231,260.465,176.764,257.485,176.346,254.988z"/>
			<path d="M179.317,274.648c-11.463,2.044-24.697,0.221-33.864-1.699c0.457,3.272,0.96,6.775,1.49,10.412
				c8.161,1.442,19.521,1.991,33.611,0.119C180.137,280.46,179.723,277.497,179.317,274.648z"/>
			<path d="M148.319,292.646c0.519,3.464,1.049,6.964,1.578,10.427c8.122,1.419,19.384,1.952,33.329,0.114
				c-0.387-2.907-0.785-5.868-1.186-8.837C170.62,296.363,157.459,294.556,148.319,292.646z"/>
			<path d="M151.327,312.372c0.564,3.646,1.112,7.152,1.624,10.427c8.059,1.382,19.159,1.89,32.864,0.104
				c-0.355-2.733-0.742-5.702-1.153-8.833C173.368,316.015,160.406,314.256,151.327,312.372z"/>
			<path d="M154.419,332.117c0.757,4.782,1.344,8.453,1.658,10.418c5.416,0.905,12.174,1.415,20.15,1.111
				c5.563-1.144,10.44-2.686,11.731-4.035c0,0-0.272-2.156-0.74-5.811C176.101,335.655,163.413,333.963,154.419,332.117z"/>
		</g>
		<g>
			<path d="M311.066,328.382c-3.66,2.87-29.518,3.784-31.944,0c0,0-1.56-88.518,0-93.455c1.56-4.938,4.593-11.109,16.294-11.109
				c11.701,0,14.184,6.273,15.65,11.109C312.533,239.761,311.066,328.382,311.066,328.382z"/>
			<path d="M297.668,152.676c-18.209,16.142-30.068,65.28-0.604,65.28C326.541,217.956,297.668,152.676,297.668,152.676z"/>
			<path d="M296.797,172.312c-12.733,10.897-21.023,44.1-0.424,44.1C316.978,216.412,296.797,172.312,296.797,172.312z"/>
			<path d="M296.082,186.951c-8.267,7.075-13.649,28.632-0.274,28.632C309.185,215.583,296.082,186.951,296.082,186.951z"/>
			<path d="M294.667,206.599c-2.136,3.311-1.682,8.549-1.243,13.621c0.135,1.589,0.262,3.091,0.316,4.477l3.779-0.074
				c-0.051-1.457-0.176-2.99-0.316-4.605c-0.384-4.425-0.82-9.421,0.813-12.009C298.428,206.593,296.664,204.577,294.667,206.599z"
				/>
			<path d="M311.564,242.966c-11.4,0.355-23.939-3.176-32.686-6.321c-0.177,2.074-0.293,5.71-0.363,10.382
				c7.869,2.572,19.008,4.711,33.172,4.854C311.664,248.514,311.623,245.498,311.564,242.966z"/>
			<path d="M311.719,262.849c-11.637,0.399-24.479-3.28-33.281-6.479c-0.012,3.303-0.011,6.841,0,10.517
				c7.874,2.584,19.041,4.737,33.254,4.881C311.707,268.719,311.715,265.727,311.719,262.849z"/>
			<path d="M278.482,276.272c0.023,3.502,0.052,7.042,0.085,10.545c7.839,2.556,18.912,4.679,32.976,4.836
				c0.029-2.933,0.057-5.92,0.08-8.915C300.031,283.113,287.259,279.458,278.482,276.272z"/>
			<path d="M278.665,296.225c0.042,3.69,0.086,7.239,0.131,10.553c7.781,2.509,18.696,4.584,32.517,4.76
				c0.035-2.756,0.074-5.752,0.111-8.908C299.969,302.954,287.386,299.378,278.665,296.225z"/>
			<path d="M278.928,316.208c0.072,4.843,0.132,8.56,0.166,10.551c5.232,1.662,11.851,3.125,19.789,3.955
				c5.668-0.344,10.715-1.181,12.184-2.332c0,0,0.037-2.174,0.09-5.857C299.889,322.783,287.569,319.313,278.928,316.208z"/>
		</g>
		<g>
			<path d="M434.24,338.603c-4.004,2.368-29.76-0.095-31.672-4.163c0,0,9.988-87.967,12.18-92.658
				c2.19-4.692,6.002-10.416,17.604-8.891c11.6,1.525,13.242,8.069,14.068,13.055C447.244,250.93,434.24,338.603,434.24,338.603z"/>
			<path d="M437.615,166.03c-18.111,15.27-29.672,61.474-0.207,61.283C466.885,227.122,437.615,166.03,437.615,166.03z"/>
			<path d="M436.861,184.469c-12.666,10.312-20.752,41.533-0.152,41.399C457.313,225.735,436.861,184.469,436.861,184.469z"/>
			<path d="M436.266,197.7c-8.383,6.823-13.732,27.482-0.102,27.394C449.797,225.006,436.266,197.7,436.266,197.7z"/>
			<path d="M433.852,215.721c-2.549,3.004-2.781,8.256-3.008,13.343c-0.074,1.593-0.143,3.099-0.271,4.48l3.758,0.419
				c0.139-1.451,0.215-2.987,0.285-4.606c0.195-4.438,0.416-9.448,2.373-11.802C437.582,216.205,436.096,213.976,433.852,215.721z"
				/>
			<path d="M445.863,253.98c-11.348-1.133-23.318-6.268-31.58-10.527c-0.447,2.033-1.035,5.623-1.715,10.247
				c7.467,3.576,18.232,7.147,32.258,9.136C445.24,259.494,445.594,256.498,445.863,253.98z"/>
			<path d="M443.426,273.714c-11.588-1.122-23.842-6.443-32.152-10.763c-0.441,3.275-0.9,6.782-1.371,10.429
				c7.471,3.589,18.262,7.178,32.336,9.173C442.65,279.531,443.051,276.566,443.426,273.714z"/>
			<path d="M408.725,282.691c-0.434,3.476-0.865,6.989-1.289,10.466c7.438,3.556,18.141,7.104,32.065,9.092
				c0.41-2.904,0.826-5.863,1.24-8.829C429.199,292.281,417.012,286.994,408.725,282.691z"/>
			<path d="M406.305,302.497c-0.438,3.664-0.855,7.189-1.244,10.48c7.387,3.501,17.94,6.982,31.619,8.956
				c0.395-2.727,0.822-5.691,1.272-8.817C426.549,311.947,414.541,306.759,406.305,302.497z"/>
			<path d="M403.961,322.345c-0.559,4.81-0.982,8.502-1.211,10.48c4.973,2.331,11.344,4.643,19.105,6.501
				c5.666,0.397,10.777,0.226,12.385-0.724c0,0,0.318-2.15,0.854-5.796C423.889,331.596,412.125,326.549,403.961,322.345z"/>
		</g>
		<path d="M450.934,342.452c-72.52-35.226-276.32-7.072-304.881,0.668c-28.317,7.743-33.639,33.028-33.639,33.028l16.562,162.635
			h337.224l15.84-155.559C482.039,383.225,468.521,352.34,450.934,342.452z"/>
		<g>
			<path d="M425.73,418.092c-42.09-8.229-74.645,6.171-108.713,0c-34.308-6.173-57.816,7.543-101.301,0
				c-36.022-6.201-79.989-2.208-94.445-0.591l2.769,27.905c7.028-0.911,21.869-0.873,52.991,2.858
				c62.513,7.542,63.18-1.372,88.652,0c25.432,1.371,89.256,8.229,123.868,0c22.926-5.409,59.309-3.707,81.488-1.906l2.478-24.985
				C461.551,422.185,445.189,421.922,425.73,418.092z"/>
			<path d="M397.51,478.438c-40.834-6.172-48.289,7.543-93.086,0c-45.196-7.543-58.859,10.972-106.215,0
				c-34.95-8.009-60.089-4.327-71.065-1.753l1.989,20.04c12.434-1.143,31.565-1.065,58.566,3.656
				c54.436,9.601,66.746-3.428,118.996,0c52.035,3.43,71.535-8.228,113.102,0c24.742,4.938,38.539,3.95,45.648,2.37l2.24-22.575
				C449.73,481.384,422.129,482.18,397.51,478.438z"/>
			<path d="M393.949,519.582c-56.547-8.914-51.324,5.486-97.844,0c-46.824-5.486-54.048,6.857-103.667,0
				c-26.638-3.658-47.572-3.413-61.275-2.388l2.142,21.589h328.564l1.727-17.404C453.904,523.414,432.465,525.71,393.949,519.582z"
				/>
			<path d="M157.577,385.176c59.964,10.972,48.452-5.486,96.886,0c48.142,5.486,82.861-7.543,134.636,0
				c31.768,4.66,66.123,3.562,87.807,2.043c0,0-13.564,0.154-19.324-7.846c-4.918-6.928-4.789-23.27-11.416-27
				c-6.691-3.324-8.746,14.5-24.92,11.5c-16.227-3-13.914-25.358-21.557-26.5c-8.779-1.311-11.986,11.5-27.742,10.5
				c-15.773-1-13.746-12.781-21.361-13c-7.355-0.211-7.441,19.25-24.174,19c-16.736-0.25-18.809-13.994-30.039-13.5
				c-10.715,0.471-6.548,34.5-32.577,35c-26.015,0.5-21.907-35.011-31.858-34c-9.158,0.932-10.96,16.5-27.315,18.5
				c-16.32,2-20.001-11.894-28.663-10.5c-11.596,1.869-8.505,20.875-22.246,24.5c-13.686,3.625-17.3-11.086-22.039-6.75
				c-2.747,2.524-2.319,4-5.325,9.625c-1.794,3.708-8.767,3.576-8.767,3.576C123.863,380.116,135.765,381.218,157.577,385.176z"/>
			<path d="M215.716,418.092c43.485,7.543,66.993-6.173,101.301,0c34.068,6.171,66.623-8.229,108.713,0
				c19.459,3.83,35.82,4.094,47.787,3.281l3.389-34.154c-21.684,1.519-56.039,2.617-87.807-2.043
				c-51.775-7.543-86.494,5.486-134.636,0c-48.435-5.486-36.922,10.972-96.886,0c-21.813-3.958-33.714-5.06-39.994-4.852
				l3.688,37.177C135.727,415.884,179.694,411.891,215.716,418.092z"/>
			<path d="M389.551,448.265c-34.611,8.229-98.436,1.371-123.868,0c-25.472-1.372-26.139,7.542-88.652,0
				c-31.122-3.731-45.962-3.77-52.991-2.858l3.103,31.278c10.976-2.574,36.115-6.256,71.065,1.753
				c47.356,10.972,61.019-7.543,106.215,0c44.797,7.543,52.252-6.172,93.086,0c24.619,3.742,52.221,2.946,70.174,1.738l3.355-33.817
				C448.859,444.558,412.477,442.855,389.551,448.265z"/>
			<path d="M419.795,500.381c-41.566-8.228-61.066,3.43-113.102,0c-52.25-3.428-64.559,9.601-118.996,0
				c-27.001-4.722-46.132-4.799-58.566-3.656l2.031,20.47c13.704-1.025,34.637-1.27,61.275,2.388
				c49.619,6.857,56.843-5.486,103.667,0c46.52,5.486,41.297-8.914,97.844,0c38.516,6.128,59.955,3.832,69.647,1.797l1.848-18.628
				C458.334,504.331,444.537,505.318,419.795,500.381z"/>
		</g>
		<g>
			<path d="M141.755,393.51c0.733,6.488,4.756,3.416,8.679,2.929c1.016-4.035-0.47-5.651-4.709-6.429
				C145.725,390.01,142.272,392.146,141.755,393.51z"/>
			<path d="M170.856,411.904c3.331-0.625,5.492-1.85,6.438-5.002c-4.021-2.732-6.343-2.422-8.773,0.333L170.856,411.904z"/>
			<path d="M138.856,493.404c-1.16,2.886,6.34,0.72,6.438-5.002c-4.021-2.732-6.343-2.422-8.773,0.333L138.856,493.404z"/>
			<path d="M195.483,410.881c0.105-2.856-0.775-4.996-4.191-6.834c-4.147,2.231-4.353,4.173-1.761,7.06L195.483,410.881z"/>
			<path d="M297.482,496.881c0.105-2.856,1.822-7.411-4.191-6.834c-6.012,0.577-4.353,4.173-1.761,7.06L297.482,496.881z"/>
			<path d="M256.113,408.873c-2-2-7.467,0.432-11.018,1.848c0.263,4.185,2.144,5.406,6.348,5.151
				C251.443,415.872,258.113,410.873,256.113,408.873z"/>
			<path d="M282.001,395.004c-3.275,0.969-8.888,5.119-7.638,7.369s10.135,0.237,10.38-2.943
				C284.988,396.248,282.001,395.004,282.001,395.004z"/>
			<path d="M238.001,484.004c-3.275,0.969-5.316,2.417-5.956,5.666c7.148,3.892,10.151,3.37,8.698-1.24L238.001,484.004z"/>
			<path d="M337.525,415.204c-2.342-2.075-4.74-3.036-8.607-2.229c-0.916,4.126,0.58,5.624,4.752,6.059L337.525,415.204z"/>
			<path d="M453.025,497.704c-2.342-2.075-6.162-6.08-8.607-2.229c-6.055,1.815,0.58,5.624,4.752,6.059L453.025,497.704z"/>
			<path d="M273.525,493.204c-2.342-2.075-4.74-3.036-8.607-2.229c-0.915,4.126,0.581,5.624,4.753,6.059L273.525,493.204z"/>
			<path d="M376.953,389.57c-3.502,0.19-6.012,1.12-7.867,4.092c3.178,3.181,5.561,3.169,8.787,0.772L376.953,389.57z"/>
			<path d="M415.789,405.242c-2.406-1.959-4.846-2.807-8.719-1.821c-0.82,4.16,0.719,5.582,4.932,5.822L415.789,405.242z"/>
			<path d="M370.789,485.742c-1.426-4.118-4.846-2.807-8.719-1.821c-0.82,4.16,0.719,5.582,4.932,5.822
				C367.002,489.743,372.215,489.86,370.789,485.742z"/>
			<path d="M463.084,401.182c-3.373-0.524-6.063-0.127-8.856,2.398c1.906,3.756,4.158,4.231,8.035,2.546L463.084,401.182z"/>
			<path d="M427.084,492.182c-3.373-0.524-6.063-0.127-8.856,2.398c1.906,3.756,4.158,4.231,8.035,2.546L427.084,492.182z"/>
			<path d="M398.084,481.682c-3.373-0.524-6.063-0.127-8.856,2.398c1.906,3.756,4.158,4.231,8.035,2.546L398.084,481.682z"/>
			<path d="M448.754,396.192c-1.814-2.347-3.959-3.595-7.978-3.27c-1.906,3.975,1.088,12.951,3.24,6.59L448.754,396.192z"/>
			<path d="M461.279,389.133c-2.025,2.127,3.613,5.504,5.824,3.003C469.322,389.635,463.307,387.008,461.279,389.133z"/>
			<path d="M430.779,484.633c-2.025,2.127,3.613,5.504,5.824,3.003C438.822,485.135,432.807,482.508,430.779,484.633z"/>
			<path d="M465.566,412.341c-2.326-1.601-7.094,3.117-4.336,4.859C463.975,418.938,467.891,413.939,465.566,412.341z"/>
			<path d="M461.066,485.841c-2.326-1.601-7.094,3.117-4.336,4.859C459.475,492.438,463.391,487.439,461.066,485.841z"/>
			<path d="M392.228,404.396c-2.637,1.523,1.359,6.301,4.297,4.463C399.471,407.022,394.865,402.873,392.228,404.396z"/>
			<path d="M340.728,491.396c-2.637,1.522,1.359,6.301,4.297,4.463C347.971,494.022,343.365,489.873,340.728,491.396z"/>
			<path d="M439.832,409.149c-3.594,6.224,3.629,5.502,5.793,3.003C447.793,409.65,441.822,407.022,439.832,409.149z"/>
			<path d="M408.832,484.149c-1.979,2.126,6.781,7.891,5.793,3.003C416.793,484.65,410.822,482.022,408.832,484.149z"/>
			<path d="M379.832,489.649c-1.979,2.126,3.629,5.502,5.793,3.003C387.793,490.15,381.822,487.522,379.832,489.649z"/>
			<path d="M430.396,398.006c-1.916-1.977-7.613,1.94-5.305,4.125C427.396,404.313,432.313,399.978,430.396,398.006z"/>
			<path d="M397.518,397.455c2.402,1.605,7.064-3.105,4.221-4.852C398.889,390.859,395.113,395.854,397.518,397.455z"/>
			<path d="M375.504,409.149c-1.902,2.126,3.826,5.502,5.902,3.003C391.488,412.248,377.416,407.022,375.504,409.149z"/>
			<path d="M318.004,485.649c-1.902,2.126,2.025,9.641,5.902,3.003C325.982,486.15,319.916,483.522,318.004,485.649z"/>
			<path d="M339.236,393.286c-1.877,2.128,3.975,5.503,6.016,3.001C347.297,393.785,341.119,391.159,339.236,393.286z"/>
			<path d="M289.737,481.286c-1.877,2.128,3.974,5.503,6.015,3.001C297.797,481.785,291.619,479.159,289.737,481.286z"/>
			<path d="M294.259,400.262c-1.814,2.126,4.095,5.505,6.067,3.004C302.299,400.763,296.082,398.135,294.259,400.262z"/>
			<path d="M257.542,393.043c2.195,9.08,4.222,5.506,6.15,3.003C265.625,393.541,259.327,390.916,257.542,393.043z"/>
			<path d="M208.542,494.543c-1.781,2.125,4.222,5.506,6.15,3.003C216.625,495.041,210.327,492.416,208.542,494.543z"/>
			<path d="M275.404,410.276c-1.785,2.125,4.129,5.501,6.062,3.001C283.405,410.776,277.193,408.149,275.404,410.276z"/>
			<path d="M221.354,406.147c-1.725,2.124,4.305,5.503,6.167,3.002C229.388,406.647,223.081,404.021,221.354,406.147z"/>
			<path d="M319.91,400.368c-3.672,6.755,4.018,5.503,6.025,3.003C327.943,400.869,321.762,398.24,319.91,400.368z"/>
			<path d="M362.16,411.783c3.129,0.15,3.695-5.779,0.086-5.831C358.643,405.896,359.031,411.637,362.16,411.783z"/>
			<path d="M226.106,393.422c-0.186-2.605-7.409-2.395-7.043,0.584C219.428,396.982,226.291,396.023,226.106,393.422z"/>
			<path d="M180.606,492.422c-0.186-2.604-7.409-2.394-7.043,0.584C173.928,495.982,180.791,495.023,180.606,492.422z"/>
			<path d="M181.943,393.297c-3.113-0.653-4.469,5.109-0.887,5.742C184.636,399.671,189.113,394.373,181.943,393.297z"/>
			<path d="M161.943,477.797c-3.113-0.653-4.469,5.109-0.887,5.742C164.636,484.171,165.052,478.446,161.943,477.797z"/>
			<path d="M204.827,403.098c-0.562,2.54,6.536,9.275,7.031,0.858C212.379,401.023,205.392,400.558,204.827,403.098z"/>
			<path d="M145.498,412.818c2.303,1.903,7.14-2.196,4.407-4.291C147.165,406.429,143.192,410.918,145.498,412.818z"/>
			<path d="M168.31,396.513c2.102-1.846-3.376-5.989-5.672-3.794C155.238,393.998,166.212,398.359,168.31,396.513z"/>
			<path d="M134.605,389.072c-2.307-1.938-7.267,2.08-4.53,4.215C132.807,395.426,136.905,391.004,134.605,389.072z"/>
			<path d="M190.105,482.072c-2.307-1.938-5.729,1.667-2.992,3.802C192.196,489.874,192.733,484.279,190.105,482.072z"/>
			<path d="M127.78,405.708c-3.002,0.621-0.674,6.372,2.703,5.55C136.46,409.804,133.383,404.553,127.78,405.708z"/>
		</g>
		<path d="M141.196,423.039c-3.837-0.568-7.31,2.769-7.557,6.709c0.114,18.523,35.64,2.85,41.557-6.709
			C160.488,431.931,148.596,424.137,141.196,423.039z"/>
		<path d="M222.298,442.027c3.873,0.206,7.017-3.442,6.893-7.389c-1.854-18.43-35.749,0.511-40.742,10.583
			C202.256,434.987,214.828,441.63,222.298,442.027z"/>
		<path d="M376.715,422.473c-3.838-0.568-7.31,2.769-7.557,6.709c0.113,18.523,35.639,2.85,41.557-6.709
			C396.006,431.364,384.115,423.57,376.715,422.473z"/>
		<path d="M450.461,440.362c3.848,0.49,7.252-2.918,7.416-6.862c-0.494-18.517-35.69-2.116-41.408,7.563
			C430.99,431.87,443.041,439.418,450.461,440.362z"/>
		<path d="M323.697,443.658c-3.838,0.568-7.311-2.769-7.557-6.709c0.113-18.522,35.639-2.85,41.557,6.709
			C342.988,434.767,331.096,442.56,323.697,443.658z"/>
		<path d="M285.298,430.17c3.873-0.206,7.018,3.442,6.893,7.389c-1.853,18.43-35.75-0.511-40.742-10.583
			C265.256,437.21,277.828,430.567,285.298,430.17z"/>
		<circle cx="180.53" cy="369.539" r="5"/>
		<circle cx="285.863" cy="377.539" r="5"/>
		<circle cx="441.863" cy="374.539" r="7.188"/>
		<circle cx="394.197" cy="355.873" r="5"/>
		<circle cx="412.863" cy="376.706" r="4.219"/>
		<circle cx="355.863" cy="356.873" r="5"/>
		<circle cx="328.863" cy="370.207" r="7.813"/>
		<circle cx="213.863" cy="372.54" r="7.813"/>
		<circle cx="300.53" cy="361.207" r="7.812"/>
		<circle cx="379.863" cy="371.207" r="7.813"/>
	</g>
</g>
<g id="text">
</g>
</svg>
