<?xml version="1.0" encoding="utf-8"?>
<!-- Generator: Adobe Illustrator 17.1.0, SVG Export Plug-In . SVG Version: 6.00 Build 0)  -->
<!DOCTYPE svg PUBLIC "-//W3C//DTD SVG 1.1//EN" "http://www.w3.org/Graphics/SVG/1.1/DTD/svg11.dtd">
<svg version="1.1" xmlns="http://www.w3.org/2000/svg" xmlns:xlink="http://www.w3.org/1999/xlink" x="0px" y="0px"
	 viewBox="0 0 595.276 841.89" enable-background="new 0 0 595.276 841.89" xml:space="preserve">
<g id="background">
</g>
<g id="cake">
</g>
<g id="Layer_3">
	<circle cx="284.73" cy="369.695" r="226.489"/>
	<g>
		<path fill="#FFFFFF" d="M354.138,324.926c0,4.984-1.403,9.024-3.133,9.024H219.29c-1.73,0-3.133-4.04-3.133-9.024v-0.376
			c0-4.984,1.403-9.024,3.133-9.024h131.715c1.73,0,3.133,4.04,3.133,9.024V324.926z"/>
		<path fill="#FFFFFF" d="M285.339,268.067c5.081,0,9.2,2.29,9.2,5.115v215.04c0,2.825-4.119,5.115-9.2,5.115h-0.383
			c-5.081,0-9.2-2.29-9.2-5.115v-215.04c0-2.825,4.119-5.115,9.2-5.115H285.339z"/>
		<g>
			<circle fill="#FFFFFF" cx="354.491" cy="326.124" r="10.626"/>
			<circle fill="#FFFFFF" cx="340.631" cy="315.498" r="10.626"/>
			<circle fill="#FFFFFF" cx="340.631" cy="335.364" r="10.626"/>
		</g>
		<g>
			<circle fill="#FFFFFF" cx="214.97" cy="325.431" r="10.626"/>
			<circle fill="#FFFFFF" cx="228.829" cy="314.805" r="10.626"/>
			<circle fill="#FFFFFF" cx="228.829" cy="334.671" r="10.626"/>
		</g>
		<g>
			<circle fill="#FFFFFF" cx="285.985" cy="493.337" r="10.626"/>
			<circle fill="#FFFFFF" cx="275.359" cy="479.477" r="10.626"/>
			<circle fill="#FFFFFF" cx="295.225" cy="479.477" r="10.626"/>
		</g>
		<g>
			<circle fill="#FFFFFF" cx="286.274" cy="268.347" r="10.626"/>
			<circle fill="#FFFFFF" cx="275.648" cy="282.207" r="10.626"/>
			<circle fill="#FFFFFF" cx="295.514" cy="282.207" r="10.626"/>
		</g>
	</g>
</g>
<g id="Layer_4">
</g>
<g id="Layer_5">
</g>
<g id="Layer_6">
</g>
<g id="Layer_7">
</g>
</svg>
