<?xml version="1.0" encoding="utf-8"?>
<!-- Generator: Adobe Illustrator 17.1.0, SVG Export Plug-In . SVG Version: 6.00 Build 0)  -->
<!DOCTYPE svg PUBLIC "-//W3C//DTD SVG 1.1//EN" "http://www.w3.org/Graphics/SVG/1.1/DTD/svg11.dtd">
<svg version="1.1" xmlns="http://www.w3.org/2000/svg" xmlns:xlink="http://www.w3.org/1999/xlink" x="0px" y="0px"
	 viewBox="0 0 595.276 841.89" enable-background="new 0 0 595.276 841.89" xml:space="preserve">
<g id="background">
</g>
<g id="cake">
</g>
<g id="Layer_3">
</g>
<g id="Layer_4">
</g>
<g id="Layer_5">
</g>
<g id="Layer_6">
	<circle cx="318.849" cy="369.695" r="226.489"/>
	<g>
		<path fill="#FFFFFF" d="M324.208,339.013c5.332-16.496,10.653-32.997,16.044-49.474c0.202-0.616,1.09-1.433,1.665-1.439
			c9.637-0.089,19.276-0.064,29.639-0.064c-15.934,17.4-31.467,34.363-47.001,51.326C324.44,339.246,324.324,339.13,324.208,339.013
			z"/>
		<path fill="#FFFFFF" d="M266.354,288.035c7.872,0,15.047-0.013,22.221,0.007c2.762,0.008,6.234-0.903,8.085,0.42
			c1.822,1.303,2.044,4.891,2.892,7.501c4.383,13.49,8.743,26.987,13.101,40.486c0.231,0.715,0.364,1.461,0.223,2.376
			C297.523,322.063,282.171,305.303,266.354,288.035z"/>
		<path fill="#FFFFFF" d="M303.763,288.107c10.125,0,19.908,0,30.141,0c-4.983,15.488-9.902,30.78-14.822,46.071
			c-0.157,0.005-0.314,0.009-0.472,0.014C313.692,318.925,308.773,303.657,303.763,288.107z"/>
		<path fill="#FFFFFF" d="M370.289,281.647c-8.581,0-17.552,0-26.967,0c2.929-6.456,5.74-12.653,8.422-18.563
			C357.975,269.321,364.19,275.543,370.289,281.647z"/>
		<path fill="#FFFFFF" d="M286.22,263.259c2.556,5.733,5.323,11.939,8.193,18.374c-9.268,0-18.211,0-26.546,0
			C273.751,275.742,279.938,269.547,286.22,263.259z"/>
		<path fill="#FFFFFF" d="M337.598,278.751c-4.978-6.367-9.665-12.363-14.579-18.647c7.882,0,15.331,0,23.069,0
			C343.275,266.283,340.52,272.333,337.598,278.751z"/>
		<path fill="#FFFFFF" d="M318.836,265.144c4.289,5.481,8.451,10.8,12.852,16.424c-8.661,0-16.943,0-25.677,0
			C310.337,276.027,314.509,270.684,318.836,265.144z"/>
		<path fill="#FFFFFF" d="M314.647,260.121c-4.889,6.255-9.572,12.247-14.518,18.576c-2.822-6.304-5.519-12.33-8.315-18.576
			C299.439,260.121,306.799,260.121,314.647,260.121z"/>
		<g>
			<path fill="#FFFFFF" d="M344.654,323.669c-2.757,3.01-5.513,6.02-8.261,9.021c35.677,7.999,62.343,39.841,62.343,77.931
				c0,44.121-35.767,79.887-79.887,79.887c-44.121,0-79.887-35.767-79.887-79.887c0-38.094,26.671-69.938,62.352-77.933
				c-2.747-2.999-5.505-6.01-8.262-9.021c-37.52,11.116-64.901,45.828-64.901,86.954c0,50.091,40.607,90.698,90.698,90.698
				c50.091,0,90.698-40.607,90.698-90.698C409.547,369.497,382.17,334.787,344.654,323.669z"/>
		</g>
	</g>
</g>
<g id="Layer_7">
</g>
</svg>
