<?xml version="1.0" encoding="utf-8"?>
<!-- Generator: Adobe Illustrator 17.1.0, SVG Export Plug-In . SVG Version: 6.00 Build 0)  -->
<!DOCTYPE svg PUBLIC "-//W3C//DTD SVG 1.1//EN" "http://www.w3.org/Graphics/SVG/1.1/DTD/svg11.dtd">
<svg version="1.1" xmlns="http://www.w3.org/2000/svg" xmlns:xlink="http://www.w3.org/1999/xlink" x="0px" y="0px"
	 viewBox="0 0 466.5 471" enable-background="new 0 0 466.5 471" xml:space="preserve">
<g id="Layer_1">
	<path d="M232.7,7.7C107.6,7.7,6.2,109.1,6.2,234.2s101.4,226.5,226.5,226.5c125.1,0,226.5-101.4,226.5-226.5S357.8,7.7,232.7,7.7z
		 M350.7,225.9c0.2,15.3-12.8,28.3-28.3,28.3c-15.4,0-28-12.7-28.1-28.1c-0.1-15.3,12.3-28.1,27.2-28.2
		C337.8,197.8,350.5,210,350.7,225.9z M307.5,156.1c0.1,10.3,0.1,20.6,0,30.9c0,7.3-5.1,12.3-12.4,12.3c-5.7,0-11.3,0-17,0.1
		c-0.1,0-0.3,0.1-0.7,0.3c0,4.1,0,8.2,0,12.2c0,0.7-0.4,1.5-0.6,2.2c-0.7-0.4-1.6-0.7-2.1-1.3c-3.5-4-6.8-8.1-10.3-12
		c-0.7-0.8-2-1.4-3-1.4c-9-0.1-18-0.1-27-0.1c-7.6,0-12.4-4.9-12.4-12.5c0-10.2,0-20.4,0-30.6c0-7.3,4.9-12.2,12.2-12.2
		c20.3,0,40.7,0,61,0C302.3,144,307.4,148.9,307.5,156.1z M151.5,130.5c0.1-8.8,6.9-15.4,16.3-15.5c23.7-0.2,47.3-0.2,71,0
		c9.7,0.1,16.2,7.2,16.2,16.9c0,1.9,0,3.9,0,6.2c-1,0-1.9,0-2.7,0c-8,0-16,0-24.1,0c-7.5,0-13.2,5-13.4,12.5
		c-0.3,9.8-0.1,19.6-0.1,29.4c0,0.8,0.2,1.6,0.3,2.6c-4.9,0-9.7,0.1-14.4,0c-1.7,0-2.8,0.4-3.9,1.8c-4.8,5.8-9.7,11.5-14.6,17.2
		c-0.5,0.6-1.5,0.9-2.3,1.3c-0.3-0.9-0.9-1.7-0.9-2.6c-0.1-5.7,0-11.5,0-17.6c-1.1,0-2-0.1-2.9-0.1c-4-0.1-8,0.2-11.9-0.4
		c-7-1-12.5-7.8-12.6-15.2C151.4,154.8,151.4,142.7,151.5,130.5z M143.6,197.9c15,0.1,27.4,12.8,27.4,28.2
		c0,15.4-12.7,28.2-28.1,28.1c-15.5,0-28.2-12.8-28.1-28.3C114.8,210.1,127.4,197.8,143.6,197.9z M220.5,331.5
		c-16.6-2.7-31.3-8.8-44.2-19.9c0,15.5,0,30.5,0,45.6c-22.3,0-44.3,0-66.6,0c0-0.9,0-1.9,0-2.8c0-22.4,0-44.7,0-67.1
		c0-15.1,10.5-26.1,25.6-26.6c6-0.2,12-0.1,18,0.3c8,0.5,14,5.2,19.4,10.5c4.3,4.2,7.9,9,11.7,13.6c9.5,11.6,21.7,18.7,36.3,21.7
		c0.5,0.1,1,0.3,1.7,0.5C216.2,314.8,215.1,322.7,220.5,331.5z M355.6,356.6c0,0.2-0.1,0.3-0.2,0.7c-22.1,0-44.1,0-66.4,0
		c0-15,0-30,0-45c-4.2,2.9-8.1,5.8-12.2,8.3c-12.1,7.3-25.5,10.8-39.5,12.2c-6.4,0.6-12-4.1-12.9-10.6c-0.9-6.1,3.5-12.1,9.7-13.4
		c6.9-1.5,13.8-2.5,20.5-4.6c11.7-3.7,20.5-11.6,28.1-21.1c4.9-6.1,9.7-12.3,16.4-16.8c4.6-3,9.3-5.3,14.8-5.4
		c6.5-0.1,13.1-0.2,19.6,0.4c11.8,1.1,21.8,11.8,21.9,23.7C355.8,308.8,355.6,332.7,355.6,356.6z"/>
</g>
<g id="Layer_2">
</g>
<g id="Layer_3">
</g>
<g id="Layer_4">
</g>
<g id="Layer_5">
</g>
<g id="Layer_6">
</g>
</svg>
