<?xml version="1.0" encoding="utf-8"?>
<!-- Generator: Adobe Illustrator 17.1.0, SVG Export Plug-In . SVG Version: 6.00 Build 0)  -->
<!DOCTYPE svg PUBLIC "-//W3C//DTD SVG 1.1//EN" "http://www.w3.org/Graphics/SVG/1.1/DTD/svg11.dtd">
<svg version="1.1" id="Layer_1" xmlns="http://www.w3.org/2000/svg" xmlns:xlink="http://www.w3.org/1999/xlink" x="0px" y="0px"
	 viewBox="0 0 595.3 841.9" enable-background="new 0 0 595.3 841.9" xml:space="preserve">
<g id="Layer_1_1_">
	<path fill="#FFFFFF" d="M296.9,130.3c-159.6,0-289,129.4-289,289s129.4,289,289,289s289-129.4,289-289S456.6,130.3,296.9,130.3z
		 M447.5,408.7c0.3,19.5-16.3,36.1-36.1,36.1c-19.7,0-35.7-16.2-35.9-35.9c-0.1-19.5,15.7-35.9,34.7-36
		C431.1,372.8,447.3,388.4,447.5,408.7z M392.4,319.6c0.1,13.1,0.1,26.3,0,39.4c0,9.3-6.5,15.7-15.8,15.7c-7.3,0-14.4,0-21.7,0.1
		c-0.1,0-0.4,0.1-0.9,0.4c0,5.2,0,10.5,0,15.6c0,0.9-0.5,1.9-0.8,2.8c-0.9-0.5-2-0.9-2.7-1.7c-4.5-5.1-8.7-10.3-13.1-15.3
		c-0.9-1-2.6-1.8-3.8-1.8c-11.5-0.1-23-0.1-34.5-0.1c-9.7,0-15.8-6.3-15.8-16c0-13,0-26,0-39c0-9.3,6.3-15.6,15.6-15.6
		c25.9,0,51.9,0,77.8,0C385.8,304.2,392.3,310.4,392.4,319.6z M193.3,287c0.1-11.2,8.8-19.7,20.8-19.8c30.2-0.3,60.4-0.3,90.6,0
		c12.4,0.1,20.7,9.2,20.7,21.6c0,2.4,0,5,0,7.9c-1.3,0-2.4,0-3.4,0c-10.2,0-20.4,0-30.8,0c-9.6,0-16.8,6.4-17.1,16
		c-0.4,12.5-0.1,25-0.1,37.5c0,1,0.3,2,0.4,3.3c-6.3,0-12.4,0.1-18.4,0c-2.2,0-3.6,0.5-5,2.3c-6.1,7.4-12.4,14.7-18.6,21.9
		c-0.6,0.8-1.9,1.1-2.9,1.7c-0.4-1.1-1.1-2.2-1.1-3.3c-0.1-7.3,0-14.7,0-22.5c-1.4,0-2.6-0.1-3.7-0.1c-5.1-0.1-10.2,0.3-15.2-0.5
		c-8.9-1.3-16-10-16.1-19.4C193.2,318,193.2,302.5,193.3,287z M183.2,373c19.1,0.1,35,16.3,35,36s-16.2,36-35.9,35.9
		c-19.8,0-36-16.3-35.9-36.1C146.5,388.5,162.6,372.8,183.2,373z M281.4,543.4c-21.2-3.4-39.9-11.2-56.4-25.4c0,19.8,0,38.9,0,58.2
		c-28.5,0-56.5,0-85,0c0-1.1,0-2.4,0-3.6c0-28.6,0-57,0-85.6c0-19.3,13.4-33.3,32.7-33.9c7.7-0.3,15.3-0.1,23,0.4
		c10.2,0.6,17.9,6.6,24.8,13.4c5.5,5.4,10.1,11.5,14.9,17.4c12.1,14.8,27.7,23.9,46.3,27.7c0.6,0.1,1.3,0.4,2.2,0.6
		C275.9,522.1,274.5,532.2,281.4,543.4z M453.8,575.5c0,0.3-0.1,0.4-0.3,0.9c-28.2,0-56.3,0-84.7,0c0-19.1,0-38.3,0-57.4
		c-5.4,3.7-10.3,7.4-15.6,10.6c-15.4,9.3-32.5,13.8-50.4,15.6c-8.2,0.8-15.3-5.2-16.5-13.5c-1.1-7.8,4.5-15.4,12.4-17.1
		c8.8-1.9,17.6-3.2,26.2-5.9c14.9-4.7,26.2-14.8,35.9-26.9c6.3-7.8,12.4-15.7,20.9-21.4c5.9-3.8,11.9-6.8,18.9-6.9
		c8.3-0.1,16.7-0.3,25,0.5c15.1,1.4,27.8,15.1,27.9,30.2C454,514.5,453.8,545,453.8,575.5z"/>
</g>
<g id="Layer_2">
</g>
<g id="Layer_3">
</g>
<g id="Layer_4">
</g>
<g id="Layer_5">
</g>
<g id="Layer_6">
</g>
</svg>
