<?xml version="1.0" encoding="utf-8"?>
<!-- Generator: Adobe Illustrator 17.1.0, SVG Export Plug-In . SVG Version: 6.00 Build 0)  -->
<!DOCTYPE svg PUBLIC "-//W3C//DTD SVG 1.1//EN" "http://www.w3.org/Graphics/SVG/1.1/DTD/svg11.dtd">
<svg version="1.1" xmlns="http://www.w3.org/2000/svg" xmlns:xlink="http://www.w3.org/1999/xlink" x="0px" y="0px"
	 viewBox="0 0 468 468" enable-background="new 0 0 468 468" xml:space="preserve">
<g id="Layer_1">
</g>
<g id="Layer_2">
</g>
<g id="Layer_3">
	<path d="M232.9,7.7C107.8,7.7,6.4,109.1,6.4,234.2s101.4,226.5,226.5,226.5c125.1,0,226.5-101.4,226.5-226.5S358,7.7,232.9,7.7z
		 M126.1,246.2c-10.4-5.7-20.8-11.3-31.2-17c-3.2-1.7-3.5-2.7-1.8-5.7c8.1-14.9,16.2-29.9,24.4-44.8c0.7-1.2,1.9-2.1,2.8-3.1
		c1.5,0.7,2.3,1.1,3.1,1.5c10.4,5.6,20.8,11.3,31.2,17c3.4,1.8,3.6,2.7,1.7,6.2c-8,14.7-16,29.4-24,44.1
		C130.4,248,129.8,248.2,126.1,246.2z M178.1,272.2c-1.7,2.9-5.5,3.7-8.6,2.4c-3.1-1.3-5.1-4.8-4.3-8.1c0.4-1.8,1-3.6,1.8-5.2
		c1.5-3.1,5.2-4.6,8.5-3.7c3,0.9,5.2,3.8,5.1,8.5C180.1,267.4,179.4,270,178.1,272.2z M185.3,283.5c-3-1.2-5.1-4.4-4.3-7.6
		c1-4,2.3-8,4-11.8c1.3-3,4.8-4.2,8-3.4c3.4,0.9,5.5,3.6,5.4,8.7c-1.1,3-2.5,7.5-4.6,11.7C192.4,284,188.4,284.8,185.3,283.5z
		 M202.6,293.6c-3.6-0.6-6.1-3.6-6.2-7.7c0.1-0.6,0.2-1.7,0.6-2.7c1.5-4.5,3.1-9.1,4.7-13.6c1.6-4.4,5.4-6.5,9.4-5.1
		c3.9,1.3,5.9,5.4,4.5,9.7c-1.6,4.9-3.3,9.8-5.1,14.7C209.3,292.1,205.8,294.1,202.6,293.6z M218.1,302.2c-3.5-0.6-5.8-3.4-5.9-7.8
		c0.1-0.5,0.3-1.6,0.7-2.8c1.5-4.5,3-8.9,4.6-13.4c1.5-4.3,5.4-6.4,9.4-5.1c3.9,1.3,5.9,5.3,4.4,9.7c-1.6,4.9-3.3,9.8-5,14.6
		C224.9,301.1,221.7,302.8,218.1,302.2z M241.3,300.4c-2.4,3-6.2,3.6-9.5,1.4c-1.1-0.8-2.2-1.7-3.3-2.6c1.7-4.9,3.3-9.5,5-14.5
		c2.6,2.2,5.2,4,7.4,6.2C243.7,293.5,243.7,297.5,241.3,300.4z M300,272.7c-1.1,5.5-7.1,7.8-11.6,4.3c-9.5-7.3-19-14.8-28.4-22.3
		c-6.2-4.9-12.3-9.8-18.6-14.6c-1.1-0.9-2.4-2.5-3.8-0.8c-1.3,1.6,0.3,2.6,1.5,3.5c12.9,10.1,25.8,20.3,38.7,30.4
		c4.4,3.4,5.1,7.9,1.8,11.4c-2.7,2.9-6.4,3.3-9.7,0.7c-7.5-5.8-14.9-11.6-22.3-17.5c-5.9-4.6-11.8-9.3-17.7-13.8
		c-0.8-0.6-2.8-1-3.3-0.5c-1.4,1.4,0.1,2.5,1.1,3.3c10.4,8.2,20.8,16.5,31.1,24.7c3.8,3,5,6.1,3.5,9.6c-1.8,4.2-6.9,5.9-10.7,3.1
		c-5.4-4-10.7-8.3-15.9-12.6c-0.6-0.5-1-1.5-1.2-2.3c-1-6-5-9.5-10.9-9c-2.7,0.2-4.3-1.2-5.6-2.9c-5.4-7.3-10.2-8.1-17.1-2.4
		c-3-7.6-11.6-9.8-17.9-3.2c-1.7-4.1-4.6-6.8-9.1-7c-4.8-0.3-8,2.3-10.1,6.8c-0.8-0.4-1.6-0.6-2.3-1c-6.8-3.9-13.6-7.9-20.5-11.7
		c-2.4-1.3-2.6-2.6-1.3-4.9c7.6-13.5,15-27,22.5-40.5c1.2-2.2,2.6-3,4.9-1.7c7.8,4.4,15.6,4.3,23.7,0.7c5-2.2,10.5-3.7,15.8-5.1
		c2.3-0.6,4.8-0.4,7.1-0.5c0.1,0.3,0.1,0.6,0.2,1c-0.4,0.4-0.7,1-1.2,1.3c-6.6,4.8-13.1,9.7-19.8,14.3c-3.7,2.6-6.7,5.6-5.7,10.5
		c1.1,5.3,4.8,8.2,9.7,9.6c3.6,1.1,7.1,0.4,10.5-1.1c9.2-3.9,18.4-7.7,27.6-11.7c2.3-1,4.1-0.8,6.1,0.8c18,14.3,36.1,28.5,54.1,42.7
		C298.3,266.4,300.8,268.7,300,272.7z M325.4,248.8c-6.9,5-13.8,10-20.6,15.1c-1.9,1.4-3.3,0.7-4.9-0.6
		c-13.1-10.5-26.2-20.9-39.3-31.3c-6.2-4.9-12.4-9.7-18.5-14.7c-1.8-1.4-3.3-1.5-5.3-0.6c-10.2,4.4-20.4,8.7-30.6,13
		c-5.4,2.2-10.3,1.3-13.6-2.7c-1-1.2-1.5-2.9-2.5-4.9c1.2-1.6,2.1-3.6,3.6-4.7c8.2-6.2,16.5-12.2,25-18.1c2.1-1.5,4.8-2.3,7.3-3.1
		c6.9-2.4,13.9-4.5,20.8-6.9c2.3-0.8,4.2-0.6,6.4,0.4c10.3,5.1,20.6,10,30.9,15.1c2.2,1.1,4.1,1.3,6.3,0.3c2.9-1.3,5.9-2.2,8.8-3.5
		c2-0.8,3.2-0.4,4.3,1.5c7.6,13.9,15.3,27.7,23,41.5C327.3,246.4,327,247.6,325.4,248.8z M371.5,228.8c-11,6-21.9,11.9-32.9,17.9
		c-2.2,1.2-3.7,0.5-4.8-1.5c-8.3-15.3-16.6-30.5-24.9-45.8c-1.2-2.3-0.7-3.8,1.5-5c10.8-5.9,21.6-11.8,32.4-17.6
		c0.7-0.4,1.5-0.6,2.9-1.2c0.9,1,2,1.9,2.6,3.1c6.8,12.4,13.6,24.8,20.3,37.2c1.4,2.6,2.8,5.2,4.3,7.8
		C374.2,226,373.8,227.6,371.5,228.8z"/>
</g>
<g id="Layer_4">
</g>
<g id="Layer_5">
</g>
<g id="Layer_6">
</g>
</svg>
