<?xml version="1.0" encoding="utf-8"?>
<!-- Generator: Adobe Illustrator 17.1.0, SVG Export Plug-In . SVG Version: 6.00 Build 0)  -->
<!DOCTYPE svg PUBLIC "-//W3C//DTD SVG 1.1//EN" "http://www.w3.org/Graphics/SVG/1.1/DTD/svg11.dtd">
<svg version="1.1" id="Layer_1" xmlns="http://www.w3.org/2000/svg" xmlns:xlink="http://www.w3.org/1999/xlink" x="0px" y="0px"
	 viewBox="0 0 595.3 841.9" enable-background="new 0 0 595.3 841.9" xml:space="preserve">
<g id="Layer_1_1_">
</g>
<g id="Layer_2">
</g>
<g id="Layer_3">
	<path fill="#FFFFFF" d="M296.2,133.1c-159.1,0-288.1,129-288.1,288.1s129,288.1,288.1,288.1s288.1-129,288.1-288.1
		S455.4,133.1,296.2,133.1z M160.4,436.5c-13.2-7.3-26.5-14.4-39.7-21.6c-4.1-2.2-4.5-3.4-2.3-7.3c10.3-19,20.6-38,31-57
		c0.9-1.5,2.4-2.7,3.6-3.9c1.9,0.9,2.9,1.4,3.9,1.9c13.2,7.1,26.5,14.4,39.7,21.6c4.3,2.3,4.6,3.4,2.2,7.9
		c-10.2,18.7-20.4,37.4-30.5,56.1C165.9,438.8,165.1,439,160.4,436.5z M226.5,469.5c-2.2,3.7-7,4.7-10.9,3.1
		c-3.9-1.7-6.5-6.1-5.5-10.3c0.5-2.3,1.3-4.6,2.3-6.6c1.9-3.9,6.6-5.9,10.8-4.7c3.8,1.1,6.6,4.8,6.5,10.8
		C229.1,463.4,228.2,466.7,226.5,469.5z M235.7,483.9c-3.8-1.5-6.5-5.6-5.5-9.7c1.3-5.1,2.9-10.2,5.1-15c1.7-3.8,6.1-5.3,10.2-4.3
		c4.3,1.1,7,4.6,6.9,11.1c-1.4,3.8-3.2,9.5-5.9,14.9C244.7,484.5,239.6,485.6,235.7,483.9z M257.7,496.8c-4.6-0.8-7.8-4.6-7.9-9.8
		c0.1-0.8,0.3-2.2,0.8-3.4c1.9-5.7,3.9-11.6,6-17.3c2-5.6,6.9-8.3,12-6.5c5,1.7,7.5,6.9,5.7,12.3c-2,6.2-4.2,12.5-6.5,18.7
		C266.2,494.8,261.8,497.4,257.7,496.8z M277.4,507.7c-4.5-0.8-7.4-4.3-7.5-9.9c0.1-0.6,0.4-2,0.9-3.6c1.9-5.7,3.8-11.3,5.9-17
		c1.9-5.5,6.9-8.1,12-6.5c5,1.7,7.5,6.7,5.6,12.3c-2,6.2-4.2,12.5-6.4,18.6C286.1,506.3,282,508.5,277.4,507.7z M306.9,505.4
		c-3.1,3.8-7.9,4.6-12.1,1.8c-1.4-1-2.8-2.2-4.2-3.3c2.2-6.2,4.2-12.1,6.4-18.4c3.3,2.8,6.6,5.1,9.4,7.9
		C310,496.6,310,501.7,306.9,505.4z M381.6,470.2c-1.4,7-9,9.9-14.8,5.5c-12.1-9.3-24.2-18.8-36.1-28.4
		c-7.9-6.2-15.6-12.5-23.7-18.6c-1.4-1.1-3.1-3.2-4.8-1c-1.7,2,0.4,3.3,1.9,4.5c16.4,12.8,32.8,25.8,49.2,38.7
		c5.6,4.3,6.5,10,2.3,14.5c-3.4,3.7-8.1,4.2-12.3,0.9c-9.5-7.4-19-14.8-28.4-22.3c-7.5-5.9-15-11.8-22.5-17.6
		c-1-0.8-3.6-1.3-4.2-0.6c-1.8,1.8,0.1,3.2,1.4,4.2c13.2,10.4,26.5,21,39.6,31.4c4.8,3.8,6.4,7.8,4.5,12.2
		c-2.3,5.3-8.8,7.5-13.6,3.9c-6.9-5.1-13.6-10.6-20.2-16c-0.8-0.6-1.3-1.9-1.5-2.9c-1.3-7.6-6.4-12.1-13.9-11.4
		c-3.4,0.3-5.5-1.5-7.1-3.7c-6.9-9.3-13-10.3-21.8-3.1c-3.8-9.7-14.8-12.5-22.8-4.1c-2.2-5.2-5.9-8.6-11.6-8.9
		c-6.1-0.4-10.2,2.9-12.8,8.6c-1-0.5-2-0.8-2.9-1.3c-8.6-5-17.3-10-26.1-14.9c-3.1-1.7-3.3-3.3-1.7-6.2
		c9.7-17.2,19.1-34.3,28.6-51.5c1.5-2.8,3.3-3.8,6.2-2.2c9.9,5.6,19.8,5.5,30.1,0.9c6.4-2.8,13.4-4.7,20.1-6.5
		c2.9-0.8,6.1-0.5,9-0.6c0.1,0.4,0.1,0.8,0.3,1.3c-0.5,0.5-0.9,1.3-1.5,1.7c-8.4,6.1-16.7,12.3-25.2,18.2c-4.7,3.3-8.5,7.1-7.3,13.4
		c1.4,6.7,6.1,10.4,12.3,12.2c4.6,1.4,9,0.5,13.4-1.4c11.7-5,23.4-9.8,35.1-14.9c2.9-1.3,5.2-1,7.8,1c22.9,18.2,45.9,36.3,68.8,54.3
		C379.4,462.2,382.6,465.1,381.6,470.2z M413.9,439.8c-8.8,6.4-17.6,12.7-26.2,19.2c-2.4,1.8-4.2,0.9-6.2-0.8
		c-16.7-13.4-33.3-26.6-50-39.8c-7.9-6.2-15.8-12.3-23.5-18.7c-2.3-1.8-4.2-1.9-6.7-0.8c-13,5.6-25.9,11.1-38.9,16.5
		c-6.9,2.8-13.1,1.7-17.3-3.4c-1.3-1.5-1.9-3.7-3.2-6.2c1.5-2,2.7-4.6,4.6-6c10.4-7.9,21-15.5,31.8-23c2.7-1.9,6.1-2.9,9.3-3.9
		c8.8-3.1,17.7-5.7,26.5-8.8c2.9-1,5.3-0.8,8.1,0.5c13.1,6.5,26.2,12.7,39.3,19.2c2.8,1.4,5.2,1.7,8,0.4c3.7-1.7,7.5-2.8,11.2-4.5
		c2.5-1,4.1-0.5,5.5,1.9c9.7,17.7,19.5,35.2,29.3,52.8C416.3,436.7,415.9,438.2,413.9,439.8z M472.5,414.3
		c-14,7.6-27.9,15.1-41.8,22.8c-2.8,1.5-4.7,0.6-6.1-1.9c-10.6-19.5-21.1-38.8-31.7-58.3c-1.5-2.9-0.9-4.8,1.9-6.4
		c13.7-7.5,27.5-15,41.2-22.4c0.9-0.5,1.9-0.8,3.7-1.5c1.1,1.3,2.5,2.4,3.3,3.9c8.6,15.8,17.3,31.5,25.8,47.3
		c1.8,3.3,3.6,6.6,5.5,9.9C476,410.8,475.5,412.8,472.5,414.3z"/>
</g>
<g id="Layer_4">
</g>
<g id="Layer_5">
</g>
<g id="Layer_6">
</g>
</svg>
