<?xml version="1.0" encoding="utf-8"?>
<!-- Generator: Adobe Illustrator 17.1.0, SVG Export Plug-In . SVG Version: 6.00 Build 0)  -->
<!DOCTYPE svg PUBLIC "-//W3C//DTD SVG 1.1//EN" "http://www.w3.org/Graphics/SVG/1.1/DTD/svg11.dtd">
<svg version="1.1" id="Layer_1" xmlns="http://www.w3.org/2000/svg" xmlns:xlink="http://www.w3.org/1999/xlink" x="0px" y="0px"
	 viewBox="0 0 595.3 841.9" enable-background="new 0 0 595.3 841.9" xml:space="preserve">
<g id="Layer_1_1_">
</g>
<g id="Layer_2">
	<path fill="#FFFFFF" d="M296.6,135.8C139,135.8,11.2,263.6,11.2,421.2S139,706.6,296.6,706.6s285.4-127.7,285.4-285.4
		S454.1,135.8,296.6,135.8z M306.3,383.8v166.3c53.2,0.6,94.9,6.6,94.9,13.9c0,7.7-46.9,13.9-104.6,13.9S192,571.6,192,563.9
		c0-7.2,41.7-13.1,94.9-13.9V383.8c0-0.5,0.3-1,0.6-1.5L150.8,272h291.8L305.9,382.3C306,382.9,306.3,383.3,306.3,383.8z"/>
</g>
<g id="Layer_3">
</g>
<g id="Layer_4">
</g>
<g id="Layer_5">
</g>
<g id="Layer_6">
</g>
</svg>
