<?xml version="1.0" encoding="utf-8"?>
<!-- Generator: Adobe Illustrator 17.1.0, SVG Export Plug-In . SVG Version: 6.00 Build 0)  -->
<!DOCTYPE svg PUBLIC "-//W3C//DTD SVG 1.1//EN" "http://www.w3.org/Graphics/SVG/1.1/DTD/svg11.dtd">
<svg version="1.1" xmlns="http://www.w3.org/2000/svg" xmlns:xlink="http://www.w3.org/1999/xlink" x="0px" y="0px"
	 viewBox="0 0 468 469.5" enable-background="new 0 0 468 469.5" xml:space="preserve">
<g id="Layer_1">
</g>
<g id="Layer_2">
</g>
<g id="Layer_3">
</g>
<g id="Layer_4">
</g>
<g id="Layer_5">
</g>
<g id="Layer_6">
	<g>
		<path d="M376.2,257.5c0-30.7,0-61.1,0-91.8c-56.5,0-112.8,0-169,0c0,18,0,35.7,0,53.7c0.9-0.4,1.5-0.7,2.2-1
			c13.4-6.4,26.8-12.8,40.2-19.3c6.4-3.1,12-1.2,14.9,4.8c2.9,6.1,0.8,11.5-5.6,14.6c-1.7,0.8-3.5,1.6-5.2,2.5
			c-14.8,7.1-29.5,14.1-44.3,21.3c-0.9,0.5-2.2,1.5-2.3,2.3c-0.2,4.2-0.1,8.4-0.1,12.8C263.5,257.5,319.8,257.5,376.2,257.5z"/>
		<path d="M234.7,7.7C109.6,7.7,8.2,109.1,8.2,234.2s101.4,226.5,226.5,226.5c125.1,0,226.5-101.4,226.5-226.5S359.8,7.7,234.7,7.7z
			 M148.2,184.6c12.5,0,22.9,10.4,22.9,22.8c0,12.7-10.3,23-23,23c-12.6,0-22.8-10.1-22.8-22.8C125.3,194.8,135.4,184.5,148.2,184.6
			z M387.6,269.1c-64,0-127.8,0-191.9,0c0-6.6,0-13.1,0-20.1c-5.5,2.6-10.6,4.9-15.6,7.5c-0.6,0.3-0.9,1.9-0.9,2.9
			c-0.1,17,0,34,0,51.1c0,1.1,0,2.2,0,3.5c-20.6,0-41.1,0-61.9,0c0-11,0-22,0-32.9c-0.3-0.1-0.5-0.2-0.8-0.2
			c-0.3,0.8-0.6,1.6-0.9,2.4c-3.4,9.6-6.8,19.1-10.1,28.7c-0.6,1.7-1.3,2.4-3.2,2.3c-6.7-0.1-13.4,0-20.5,0
			c2.9-8.3,5.7-16.2,8.5-24.2c5.4-15.3,10.8-30.7,16.2-46c2.2-6.2,5.3-8.4,12-8.4c17.3,0,34.6,0,52-0.1c1.8,0,3.8-0.5,5.5-1.2
			c5.8-2.6,11.4-5.5,17.2-8.1c1.8-0.8,2.5-1.8,2.4-3.8c-0.1-21.6-0.1-43.1-0.1-64.7c0-1.1,0-2.2,0-3.5c64,0,127.9,0,192,0
			C387.6,192.6,387.6,230.8,387.6,269.1z"/>
	</g>
</g>
</svg>
