<?xml version="1.0" encoding="utf-8"?>
<!-- Generator: Adobe Illustrator 17.1.0, SVG Export Plug-In . SVG Version: 6.00 Build 0)  -->
<!DOCTYPE svg PUBLIC "-//W3C//DTD SVG 1.1//EN" "http://www.w3.org/Graphics/SVG/1.1/DTD/svg11.dtd">
<svg version="1.1" id="Layer_1" xmlns="http://www.w3.org/2000/svg" xmlns:xlink="http://www.w3.org/1999/xlink" x="0px" y="0px"
	 viewBox="0 0 595.3 841.9" enable-background="new 0 0 595.3 841.9" xml:space="preserve">
<g id="Layer_1_1_">
</g>
<g id="Layer_2">
</g>
<g id="Layer_3">
</g>
<g id="Layer_4">
</g>
<g id="Layer_5">
</g>
<g id="Layer_6">
	<g>
		<path fill="#FFFFFF" d="M478.5,449.9c0-39,0-77.7,0-116.8c-71.9,0-143.5,0-215,0c0,22.9,0,45.4,0,68.3c1.1-0.5,1.9-0.9,2.8-1.3
			c17-8.1,34.1-16.3,51.1-24.5c8.1-3.9,15.3-1.5,19,6.1c3.7,7.8,1,14.6-7.1,18.6c-2.2,1-4.5,2-6.6,3.2c-18.8,9-37.5,17.9-56.3,27.1
			c-1.1,0.6-2.8,1.9-2.9,2.9c-0.3,5.3-0.1,10.7-0.1,16.3C335.2,449.9,406.8,449.9,478.5,449.9z"/>
		<path fill="#FFFFFF" d="M298.5,132.1c-159.1,0-288.1,129-288.1,288.1s129,288.1,288.1,288.1s288.1-129,288.1-288.1
			S457.7,132.1,298.5,132.1z M188.5,357.2c15.9,0,29.1,13.2,29.1,29c0,16.2-13.1,29.3-29.3,29.3c-16,0-29-12.8-29-29
			C159.4,370.1,172.2,357,188.5,357.2z M493,464.6c-81.4,0-162.6,0-244.1,0c0-8.4,0-16.7,0-25.6c-7,3.3-13.5,6.2-19.8,9.5
			c-0.8,0.4-1.1,2.4-1.1,3.7c-0.1,21.6,0,43.2,0,65c0,1.4,0,2.8,0,4.5c-26.2,0-52.3,0-78.7,0c0-14,0-28,0-41.8
			c-0.4-0.1-0.6-0.3-1-0.3c-0.4,1-0.8,2-1.1,3.1c-4.3,12.2-8.6,24.3-12.8,36.5c-0.8,2.2-1.7,3.1-4.1,2.9c-8.5-0.1-17,0-26.1,0
			c3.7-10.6,7.3-20.6,10.8-30.8c6.9-19.5,13.7-39,20.6-58.5c2.8-7.9,6.7-10.7,15.3-10.7c22,0,44,0,66.1-0.1c2.3,0,4.8-0.6,7-1.5
			c7.4-3.3,14.5-7,21.9-10.3c2.3-1,3.2-2.3,3.1-4.8c-0.1-27.5-0.1-54.8-0.1-82.3c0-1.4,0-2.8,0-4.5c81.4,0,162.7,0,244.2,0
			C493,367.3,493,415.9,493,464.6z"/>
	</g>
</g>
</svg>
